<svg xmlns="http://www.w3.org/2000/svg" viewBox="0 0 392.46 418.33"><defs><style>.cls-1{fill:#fff;}</style></defs><g id="Calque_2" data-name="Calque 2"><g id="Calque_1-2" data-name="Calque 1"><path class="cls-1" d="M178.84,294.26l-38.19,38.2c-2.8,2.8-7.77,2.58-10.85-.52l-44.52-44.5c-3.08-3.08-3.29-8.05-.5-10.84l48.3-48.3A284.85,284.85,0,0,0,178.84,294.26Z"/><path class="cls-1" d="M218,328.65,133.57,413A18,18,0,0,1,108,413L93.24,398.24a18.51,18.51,0,0,1-5.37-15.73c1.86-12.18-3.16-26.62-14.31-37.74S48,328.6,35.82,330.46a18.5,18.5,0,0,1-15.73-5.37L5.3,310.3a18,18,0,0,1,0-25.55L95.55,194.5A186.17,186.17,0,0,1,85,149.11C72.62,28.75,168.83,0,168.83,0,104.43,56.39,98.08,121.55,115,175v.05a242,242,0,0,0,11.47,36.19l-53,53c-9,9-8.27,24.5,1.63,34.4l44.53,44.52c9.9,9.91,25.39,10.63,34.38,1.64l38.07-38.07a228.72,228.72,0,0,0,25.7,21.82Z"/><path class="cls-1" d="M390.73,226.37c-17.84,135-118.41,108.37-164,83.55l-.13-.09A231.3,231.3,0,0,1,200.85,288c-3.84-3.71-7.94-7.86-12.19-12.48a284.94,284.94,0,0,1-45.77-66l4.3-4.3,26.7-26.7,20.92-20.92c2.79-2.79,7.77-2.55,10.82.5l44.53,44.52c3.09,3.08,3.31,8.05.52,10.85l-48.3,48.3c4.8,3.6,9.64,7,14.44,10.23l28.3-28.28L263,225.86c9-9,8.27-24.49-1.66-34.4l-44.5-44.52c-9.91-9.91-25.4-10.65-34.41-1.64l-47.25,47.25a240.44,240.44,0,0,1-11.47-36.19v0L203,77.08a18.06,18.06,0,0,1,25.55,0l14.76,14.77a18.48,18.48,0,0,1,5.37,15.75c-1.83,12.18,3.16,26.62,14.31,37.77s25.59,16.14,37.76,14.31A18.46,18.46,0,0,1,316.47,165l14.77,14.77a18,18,0,0,1,0,25.55l-84.57,84.58c4.9,2.59,9.49,4.82,13.56,6.61,6.13,2.7,11.17,4.45,14.62,5.08,39.44,7.18,132.68-23.32,74.46-167.61C292.74-6.08,189.47,33,187.09,33.89,214.75,6.29,293.22,9.81,349.31,87.42S390.73,226.37,390.73,226.37Z"/></g></g></svg>